<svg xmlns="http://www.w3.org/2000/svg" xmlns:xlink="http://www.w3.org/1999/xlink" width="500" zoomAndPan="magnify" viewBox="0 0 375 374.999991" height="500" preserveAspectRatio="xMidYMid meet" version="1.0"><defs><g/><clipPath id="e51a949cb5"><path d="M 107.078125 92.578125 L 267.578125 92.578125 L 267.578125 277.828125 L 107.078125 277.828125 Z M 107.078125 92.578125 " clip-rule="nonzero"/></clipPath><clipPath id="80e6712aa3"><path d="M 101.246094 163 L 273.746094 163 L 273.746094 284.921875 L 101.246094 284.921875 Z M 101.246094 163 " clip-rule="nonzero"/></clipPath></defs><rect x="-37.5" width="450" fill="#ffffff" y="-37.499999" height="449.999989" fill-opacity="1"/><rect x="-37.5" width="450" fill="#ffffff" y="-37.499999" height="449.999989" fill-opacity="1"/><rect x="-37.5" width="450" fill="#ffeac7" y="-37.499999" height="449.999989" fill-opacity="1"/><g clip-path="url(#e51a949cb5)"><path fill="#6e4139" d="M 185.613281 92.605469 C 185.277344 92.613281 184.890625 92.738281 184.675781 93.035156 L 137.125 149.988281 C 136.335938 150.976562 136.28125 151.199219 137.34375 151.210938 L 232.585938 150.957031 C 233.894531 150.851562 233.902344 150.917969 233.054688 149.804688 L 186.332031 92.855469 C 186.234375 92.703125 185.949219 92.59375 185.613281 92.605469 Z M 194.742188 97.675781 L 237.617188 149.878906 C 238.191406 150.574219 238.332031 150.617188 239.34375 150.128906 L 261.953125 139.769531 C 263.433594 139.101562 263.226562 138.960938 262.238281 138.292969 L 194.738281 97.675781 Z M 174.722656 99.582031 C 174.703125 99.539062 174.351562 99.800781 173.570312 100.339844 L 111.324219 141.351562 L 130.804688 150.203125 C 131.820312 150.539062 132.121094 150.554688 132.78125 149.734375 L 173.859375 100.625 C 174.441406 99.957031 174.742188 99.625 174.722656 99.582031 Z M 194.417969 120.378906 C 197.167969 120.378906 199.371094 121.328125 200.996094 123.21875 C 202.617188 125.101562 203.53125 127.792969 203.761719 131.277344 C 203.992188 134.753906 203.410156 137.445312 202.039062 139.335938 C 200.664062 141.21875 198.605469 142.144531 195.855469 142.144531 C 193.09375 142.144531 190.898438 141.21875 189.277344 139.335938 C 187.65625 137.445312 186.742188 134.753906 186.511719 131.277344 C 186.28125 127.792969 186.863281 125.101562 188.234375 123.21875 C 189.609375 121.328125 191.65625 120.378906 194.417969 120.378906 Z M 176.339844 120.59375 C 178.847656 120.59375 180.726562 121.144531 181.945312 122.25 C 183.171875 123.355469 183.609375 124.875 183.3125 126.855469 C 183.136719 127.996094 182.6875 129.0625 181.945312 130.054688 C 181.207031 131.039062 179.773438 132.390625 177.632812 134.050781 L 172.566406 137.96875 L 181.765625 137.96875 L 181.191406 141.929688 L 165.953125 141.929688 L 166.5625 137.96875 L 175.226562 131.207031 C 176.003906 130.589844 176.605469 129.996094 177.023438 129.40625 C 177.4375 128.816406 177.679688 128.175781 177.777344 127.535156 C 177.925781 126.554688 177.738281 125.761719 177.167969 125.164062 C 176.601562 124.5625 175.746094 124.261719 174.648438 124.261719 C 173.808594 124.261719 172.867188 124.472656 171.8125 124.839844 C 170.753906 125.195312 169.609375 125.710938 168.359375 126.421875 L 169.042969 121.816406 C 170.320312 121.414062 171.5625 121.125 172.78125 120.917969 C 174.003906 120.703125 175.199219 120.59375 176.339844 120.59375 Z M 194.667969 124.082031 C 193.507812 124.082031 192.722656 124.625 192.296875 125.703125 C 191.871094 126.769531 191.730469 128.621094 191.902344 131.242188 C 192.078125 133.894531 192.449219 135.730469 193.015625 136.820312 C 193.582031 137.90625 194.441406 138.472656 195.605469 138.472656 C 196.753906 138.472656 197.550781 137.90625 197.976562 136.820312 C 198.398438 135.730469 198.546875 133.894531 198.371094 131.242188 C 198.199219 128.621094 197.824219 126.769531 197.257812 125.703125 C 196.699219 124.625 195.828125 124.082031 194.667969 124.082031 Z M 142.984375 126.996094 C 143.484375 126.996094 143.832031 127.121094 143.992188 127.394531 C 144.304688 127.933594 143.910156 128.984375 142.839844 130.59375 C 141.769531 132.214844 140.542969 133.589844 139.140625 134.695312 C 137.734375 135.800781 136.179688 136.632812 134.503906 137.179688 C 133.414062 137.535156 132.664062 137.628906 132.238281 137.429688 C 131.808594 137.230469 131.710938 136.734375 131.953125 135.992188 C 131.140625 136.847656 130.296875 137.59375 129.398438 138.1875 C 128.503906 138.78125 127.589844 139.238281 126.632812 139.554688 C 125.203125 140.019531 124.34375 139.984375 124.117188 139.445312 C 123.886719 138.90625 124.296875 137.871094 125.300781 136.351562 C 126.300781 134.84375 127.414062 133.566406 128.679688 132.539062 C 129.9375 131.511719 131.308594 130.777344 132.742188 130.308594 C 133.699219 129.992188 134.371094 129.910156 134.753906 130.089844 C 135.144531 130.265625 135.234375 130.695312 135.042969 131.351562 C 135.917969 130.402344 136.84375 129.601562 137.84375 128.941406 C 138.84375 128.273438 139.886719 127.746094 140.972656 127.394531 C 141.8125 127.117188 142.488281 127 142.984375 126.996094 Z M 238.914062 127.859375 C 239.769531 128.578125 240.558594 129.320312 241.285156 130.019531 C 242.015625 130.71875 242.679688 131.394531 243.261719 132.070312 C 244.539062 133.550781 245.21875 134.703125 245.277344 135.523438 C 245.335938 136.351562 244.78125 136.773438 243.621094 136.78125 C 242.953125 136.78125 242.167969 136.585938 241.285156 136.242188 C 240.410156 135.898438 239.015625 135.195312 237.082031 134.085938 L 232.480469 131.457031 L 237.1875 136.890625 L 234.851562 136.925781 L 227.089844 127.933594 L 229.425781 127.898438 L 237.296875 132.394531 C 238.007812 132.796875 238.617188 133.101562 239.128906 133.292969 C 239.640625 133.484375 240.085938 133.582031 240.460938 133.582031 C 241.035156 133.582031 241.308594 133.363281 241.320312 132.96875 C 241.339844 132.582031 241.089844 132.070312 240.53125 131.421875 C 240.101562 130.925781 239.53125 130.359375 238.804688 129.769531 C 238.085938 129.179688 237.21875 128.566406 236.21875 127.898438 L 238.914062 127.863281 Z M 139.785156 130.269531 C 139.519531 130.296875 139.15625 130.351562 138.742188 130.488281 C 137.902344 130.761719 137.160156 131.140625 136.515625 131.601562 C 135.859375 132.066406 135.324219 132.589844 134.933594 133.183594 C 134.535156 133.785156 134.449219 134.195312 134.679688 134.371094 C 134.914062 134.550781 135.46875 134.5 136.296875 134.230469 C 137.128906 133.957031 137.867188 133.582031 138.527344 133.113281 C 139.179688 132.648438 139.710938 132.09375 140.109375 131.496094 C 140.5 130.898438 140.589844 130.515625 140.359375 130.34375 C 140.242188 130.257812 140.050781 130.246094 139.785156 130.273438 Z M 131.984375 133.003906 C 131.773438 133.023438 131.496094 133.074219 131.160156 133.183594 C 130.488281 133.40625 129.898438 133.734375 129.363281 134.121094 C 128.820312 134.511719 128.363281 134.953125 128.03125 135.453125 C 127.691406 135.964844 127.601562 136.300781 127.78125 136.460938 C 127.960938 136.613281 128.410156 136.570312 129.074219 136.351562 C 129.746094 136.132812 130.328125 135.84375 130.871094 135.453125 C 131.417969 135.054688 131.863281 134.597656 132.199219 134.085938 C 132.53125 133.585938 132.636719 133.265625 132.453125 133.113281 C 132.363281 133.035156 132.199219 132.988281 131.984375 133.003906 Z M 265.253906 142.214844 C 265.0625 142.230469 264.753906 142.339844 264.285156 142.539062 L 241.066406 153.152344 C 240.242188 153.527344 240.292969 154.03125 240.597656 154.664062 L 267.589844 223.199219 L 265.648438 143.363281 C 265.589844 142.492188 265.578125 142.191406 265.253906 142.214844 Z M 109.558594 144.339844 L 107.078125 222.011719 L 129.9375 154.804688 C 130.273438 153.8125 130.265625 153.761719 129.578125 153.4375 L 109.558594 144.335938 Z M 233.84375 154.410156 L 136.441406 154.664062 C 135.050781 154.644531 135.105469 154.644531 135.792969 155.777344 L 185.25 239.28125 C 186.085938 240.554688 185.996094 240.515625 186.867188 239.210938 L 234.382812 155.566406 C 234.796875 154.902344 235.097656 154.4375 233.84375 154.414062 Z M 237.726562 156.605469 C 237.636719 156.644531 237.539062 156.984375 237.257812 157.503906 L 189.421875 241.761719 C 188.898438 242.652344 188.773438 242.972656 190.03125 242.769531 L 265.976562 232.300781 C 267.183594 232.027344 267.144531 231.59375 266.734375 230.394531 L 238.085938 157.542969 C 237.898438 156.84375 237.816406 156.570312 237.726562 156.605469 Z M 132.703125 157.398438 C 132.609375 157.464844 132.523438 157.820312 132.34375 158.332031 L 108.082031 229.816406 C 107.667969 231.335938 107.621094 231.90625 109.160156 232.191406 L 181.722656 242.695312 C 183.097656 242.902344 182.921875 242.210938 182.585938 241.546875 L 133.203125 158.148438 C 132.890625 157.519531 132.792969 157.328125 132.699219 157.394531 Z M 264.75 158.332031 L 264.894531 161.320312 L 262.449219 162.902344 L 263.023438 173.730469 L 265.46875 171.320312 L 265.648438 174.269531 L 263.167969 176.644531 L 260.546875 178.335938 L 259.828125 164.558594 L 258.675781 165.277344 L 258.710938 166.140625 C 258.171875 166.066406 257.648438 166.097656 257.128906 166.210938 C 256.605469 166.335938 256.113281 166.546875 255.621094 166.859375 C 254.886719 167.324219 254.335938 167.871094 253.96875 168.515625 C 253.59375 169.160156 253.425781 169.859375 253.464844 170.601562 C 253.503906 171.363281 253.726562 171.796875 254.148438 171.933594 C 254.566406 172.074219 255.164062 171.921875 255.945312 171.429688 L 257.058594 170.707031 L 257.203125 173.515625 L 256.050781 174.234375 C 255.359375 174.675781 254.828125 175.191406 254.507812 175.746094 C 254.183594 176.304688 254.039062 176.921875 254.074219 177.617188 C 254.109375 178.261719 254.300781 178.660156 254.652344 178.804688 C 255 178.945312 255.484375 178.828125 256.089844 178.445312 C 256.535156 178.160156 256.972656 177.773438 257.417969 177.328125 C 257.863281 176.882812 258.3125 176.375 258.746094 175.78125 L 258.890625 178.949219 C 258.359375 179.535156 257.839844 180.035156 257.308594 180.496094 C 256.78125 180.957031 256.246094 181.351562 255.730469 181.679688 C 254.335938 182.566406 253.292969 182.898438 252.566406 182.617188 C 251.835938 182.347656 251.417969 181.5 251.34375 180.0625 C 251.292969 179.082031 251.40625 178.167969 251.703125 177.328125 C 252 176.496094 252.472656 175.726562 253.105469 175.0625 C 252.367188 175.230469 251.789062 175.082031 251.378906 174.59375 C 250.964844 174.117188 250.753906 173.335938 250.695312 172.21875 C 250.613281 170.558594 250.933594 169.035156 251.703125 167.652344 C 252.472656 166.273438 253.664062 165.082031 255.226562 164.089844 C 255.777344 163.738281 256.316406 163.4375 256.878906 163.226562 C 256.992188 163.179688 257.121094 163.15625 257.238281 163.117188 L 257.273438 163.082031 Z M 111.605469 164.160156 C 111.972656 164.136719 112.355469 164.257812 112.792969 164.519531 C 113.753906 165.101562 114.453125 166.195312 114.878906 167.796875 C 114.902344 167.894531 114.925781 168.015625 114.949219 168.117188 L 115.09375 166.210938 L 120.269531 169.34375 L 120.050781 171.96875 L 118.363281 170.960938 L 117.609375 180.386719 L 119.371094 180.746094 L 119.1875 183.300781 L 117.390625 182.976562 L 115.59375 181.863281 L 116.566406 169.847656 L 115.09375 168.980469 C 115.3125 170.359375 115.386719 171.949219 115.234375 173.765625 C 115.039062 176.183594 114.5625 177.871094 113.835938 178.875 C 113.105469 179.886719 112.210938 180.066406 111.136719 179.414062 C 110.800781 179.210938 110.480469 178.957031 110.167969 178.660156 C 109.855469 178.363281 109.53125 178.015625 109.234375 177.617188 L 109.449219 174.917969 C 109.738281 175.402344 110.046875 175.800781 110.3125 176.105469 C 110.578125 176.417969 110.839844 176.664062 111.101562 176.824219 C 111.671875 177.167969 112.136719 177.117188 112.503906 176.679688 C 112.871094 176.253906 113.105469 175.429688 113.257812 174.234375 C 113.015625 174.421875 112.769531 174.519531 112.503906 174.523438 C 112.238281 174.535156 111.941406 174.453125 111.640625 174.269531 C 110.886719 173.8125 110.34375 173.015625 109.953125 171.859375 C 109.558594 170.703125 109.40625 169.394531 109.519531 167.976562 C 109.648438 166.40625 110.003906 165.296875 110.597656 164.664062 C 110.898438 164.351562 111.238281 164.1875 111.605469 164.160156 Z M 112.144531 166.789062 C 112.011719 166.816406 111.886719 166.914062 111.785156 167.074219 C 111.582031 167.40625 111.460938 167.980469 111.390625 168.839844 C 111.320312 169.695312 111.328125 170.398438 111.460938 170.925781 C 111.589844 171.457031 111.84375 171.835938 112.179688 172.039062 C 112.515625 172.242188 112.769531 172.152344 112.972656 171.824219 C 113.171875 171.5 113.296875 170.917969 113.367188 170.0625 C 113.4375 169.207031 113.425781 168.507812 113.296875 167.976562 C 113.164062 167.449219 112.945312 167.097656 112.613281 166.894531 C 112.445312 166.792969 112.28125 166.757812 112.144531 166.789062 Z M 169.21875 172.113281 L 174.324219 172.113281 L 174.324219 175.925781 L 183.632812 175.925781 L 183.632812 180.566406 L 175.222656 193.085938 L 169.21875 193.085938 L 169.21875 179.847656 L 166.238281 179.847656 L 166.238281 175.925781 L 169.21875 175.925781 Z M 186.902344 172.113281 L 201.53125 172.113281 L 201.53125 175.855469 L 196.789062 175.855469 L 196.789062 189.417969 L 201.675781 188.410156 L 201.675781 192.078125 L 196.789062 193.085938 L 191.648438 193.085938 L 191.648438 175.855469 L 186.902344 175.855469 Z M 174.324219 179.847656 L 174.324219 188.660156 L 180.253906 179.847656 Z M 138.203125 195.710938 L 141.582031 200.316406 L 140 201.359375 C 140.246094 201.417969 140.46875 201.457031 140.71875 201.539062 C 142.703125 202.210938 144.53125 203.691406 146.183594 205.929688 C 148.003906 208.394531 148.738281 210.726562 148.375 212.980469 C 148 215.234375 146.539062 217.191406 144.027344 218.847656 C 141.449219 220.542969 138.859375 221.109375 136.226562 220.5 C 133.582031 219.886719 131.25 218.183594 129.21875 215.429688 C 128.574219 214.554688 127.988281 213.699219 127.492188 212.800781 C 126.996094 211.90625 126.570312 210.984375 126.199219 210.03125 L 129.074219 208.125 C 129.355469 209.136719 129.699219 210.050781 130.082031 210.859375 C 130.453125 211.671875 130.875 212.410156 131.375 213.089844 C 132.449219 214.546875 133.628906 215.449219 134.894531 215.824219 C 136.160156 216.203125 137.476562 216.046875 138.886719 215.320312 C 138.132812 214.984375 137.449219 214.53125 136.800781 213.988281 C 136.144531 213.453125 135.539062 212.78125 134.96875 212.011719 C 133.535156 210.070312 132.828125 208.199219 132.882812 206.398438 C 132.933594 204.589844 133.710938 203.183594 135.21875 202.1875 C 135.636719 201.914062 136.074219 201.707031 136.515625 201.542969 L 134.175781 198.375 Z M 229.921875 202.367188 L 233.839844 205.390625 L 240.09375 220.070312 L 236.96875 224.710938 L 225.683594 216.074219 L 224.136719 218.378906 L 220.792969 215.824219 L 222.375 213.484375 L 219.105469 211.003906 L 221.800781 207.046875 L 225.035156 209.5625 Z M 140.898438 206.003906 C 140.289062 206.042969 139.640625 206.308594 138.957031 206.757812 C 138.042969 207.359375 137.542969 208.007812 137.410156 208.734375 C 137.265625 209.460938 137.492188 210.28125 138.128906 211.148438 C 138.761719 212.003906 139.472656 212.492188 140.25 212.621094 C 141.015625 212.746094 141.855469 212.503906 142.765625 211.902344 C 143.675781 211.300781 144.199219 210.648438 144.347656 209.921875 C 144.480469 209.191406 144.261719 208.367188 143.628906 207.511719 C 142.988281 206.648438 142.273438 206.164062 141.507812 206.039062 C 141.3125 206.007812 141.101562 205.988281 140.898438 206.003906 Z M 231.46875 207.550781 L 228.375 212.117188 L 235.851562 217.875 Z M 113.832031 236.367188 L 185.03125 276.804688 C 185.953125 277.363281 186.171875 277.160156 186.039062 276.191406 L 184.53125 247.84375 C 184.488281 246.929688 184.363281 246.554688 183.414062 246.40625 L 113.835938 236.367188 Z M 261.046875 236.4375 L 188.765625 246.441406 C 187.808594 246.582031 187.984375 247.050781 187.972656 247.734375 L 189.519531 276.589844 C 189.597656 277.464844 189.574219 277.777344 190.632812 277.234375 Z M 215.792969 248.886719 L 221.078125 254.75 L 225.210938 252.304688 L 226.359375 253.597656 L 215.507812 260.039062 L 213.746094 261.082031 L 202.890625 267.523438 L 201.742188 266.261719 L 205.875 263.816406 L 201.667969 259.210938 L 197.789062 262.054688 L 196.636719 260.792969 L 200.519531 257.988281 L 204.941406 255.363281 L 210.257812 261.226562 L 212.597656 259.824219 L 214.355469 258.78125 L 216.691406 257.375 L 212.523438 252.769531 L 208.605469 255.613281 L 207.492188 254.355469 L 211.375 251.511719 Z M 168.28125 249.75 C 169.679688 249.8125 170.941406 250.296875 172.125 251.1875 C 173.441406 252.179688 173.996094 253.246094 173.777344 254.425781 C 173.558594 255.605469 172.585938 256.785156 170.867188 257.953125 C 169.847656 258.644531 168.792969 259.117188 167.742188 259.425781 L 168.960938 260.363281 L 166.195312 262.234375 L 163.75 260.398438 L 164.648438 259.785156 C 163.117188 259.6875 161.738281 259.183594 160.480469 258.238281 C 160.007812 257.882812 159.578125 257.539062 159.222656 257.160156 C 158.863281 256.785156 158.554688 256.386719 158.289062 255.972656 L 160.265625 254.640625 C 160.472656 255.09375 160.710938 255.472656 160.984375 255.828125 C 161.261719 256.183594 161.585938 256.523438 161.953125 256.800781 C 162.730469 257.382812 163.585938 257.683594 164.46875 257.699219 C 165.359375 257.714844 166.265625 257.421875 167.238281 256.871094 C 166.691406 256.804688 166.195312 256.691406 165.726562 256.511719 C 165.261719 256.332031 164.839844 256.097656 164.433594 255.792969 C 163.402344 255.015625 162.890625 254.148438 162.890625 253.238281 C 162.898438 252.332031 163.429688 251.535156 164.46875 250.828125 C 165.621094 250.046875 166.886719 249.691406 168.28125 249.75 Z M 168.890625 251.90625 C 168.347656 251.949219 167.785156 252.171875 167.164062 252.589844 C 166.539062 253.015625 166.171875 253.429688 166.085938 253.816406 C 166.007812 254.199219 166.207031 254.550781 166.664062 254.894531 C 167.117188 255.234375 167.597656 255.398438 168.136719 255.363281 C 168.679688 255.320312 169.273438 255.066406 169.898438 254.640625 C 170.515625 254.222656 170.855469 253.839844 170.941406 253.453125 C 171.023438 253.070312 170.855469 252.683594 170.402344 252.339844 C 169.945312 251.996094 169.433594 251.867188 168.890625 251.90625 Z M 168.890625 251.90625 " fill-opacity="1" fill-rule="nonzero"/></g><path fill="#edd17a" d="M 271.710938 211.53125 L 265.046875 258.234375 L 194.34375 283.066406 L 179.535156 283.066406 L 108.460938 256.382812 L 103.277344 211.160156 L 179.167969 233.03125 L 195.457031 233.03125 Z M 137.332031 220.800781 C 137.332031 220.800781 138.8125 177.800781 144.738281 174.097656 C 150.664062 170.390625 152.882812 173.355469 152.882812 173.355469 C 152.882812 173.355469 169.171875 178.542969 186.941406 173.355469 C 186.941406 173.355469 193.214844 164.175781 200.308594 173.515625 C 198.210938 168.828125 195.722656 165.570312 193.234375 165.570312 C 188.792969 165.570312 186.574219 172.984375 186.574219 172.984375 C 171.027344 169.28125 152.515625 172.984375 152.515625 172.984375 C 147.332031 157.414062 139.183594 166.308594 136.222656 190.773438 C 134.753906 202.898438 134.742188 211.375 135.101562 216.847656 Z M 248.492188 192.042969 C 232.253906 179.957031 212.417969 184.042969 206.257812 185.746094 C 213.601562 202.328125 225.753906 184.425781 248.492188 192.042969 Z M 248.492188 192.042969 " fill-opacity="1" fill-rule="nonzero"/><path fill="#fdf5d8" d="M 271.710938 211.53125 L 265.046875 258.234375 L 194.34375 283.066406 L 179.535156 283.066406 L 179.535156 233.03125 L 179.164062 233.03125 L 135.429688 220.425781 C 135.308594 219.421875 135.195312 218.226562 135.105469 216.851562 L 137.332031 220.800781 C 137.332031 220.800781 138.8125 177.800781 144.738281 174.097656 C 150.664062 170.390625 152.882812 173.355469 152.882812 173.355469 C 152.882812 173.355469 169.171875 178.542969 186.941406 173.355469 C 186.941406 173.355469 193.214844 164.175781 200.308594 173.515625 C 201.957031 177.195312 203.363281 181.761719 204.339844 186.328125 C 204.339844 186.328125 205.027344 186.082031 206.257812 185.746094 C 213.601562 202.324219 225.746094 184.441406 248.464844 192.035156 C 254.59375 196.59375 260.214844 203.441406 264.394531 213.597656 L 195.457031 233.03125 Z M 271.710938 211.53125 " fill-opacity="1" fill-rule="nonzero"/><path fill="#edd17a" d="M 210.714844 184.71875 C 213.578125 184.183594 217.242188 183.714844 221.34375 183.6875 C 221.136719 188.503906 220.25 195.222656 216.921875 195.222656 C 213.28125 195.222656 211.472656 188.636719 210.714844 184.71875 Z M 233.214844 195.964844 C 235.761719 195.964844 236.605469 190.601562 236.859375 186.023438 C 233.816406 185.019531 230.785156 184.398438 227.867188 184.054688 C 228.644531 188.882812 230.289062 195.964844 233.214844 195.964844 Z M 264.34375 213.5 C 263.296875 210.972656 262.167969 208.640625 260.957031 206.507812 L 172.976562 229.570312 L 172.703125 231.171875 L 179.167969 233.03125 L 195.457031 233.03125 L 258.875 215.152344 L 197.1875 233.789062 L 196.753906 240.710938 L 270.972656 218.207031 L 272.082031 211.160156 Z M 264.34375 213.5 " fill-opacity="1" fill-rule="nonzero"/><g clip-path="url(#80e6712aa3)"><path fill="#6e4139" d="M 272.929688 210.136719 C 272.460938 209.726562 271.8125 209.574219 271.210938 209.746094 L 265.445312 211.371094 C 256.097656 190.125 240.371094 183.773438 228.539062 182.261719 C 218.34375 180.960938 209.503906 182.90625 205.695312 183.96875 C 204.234375 177.96875 200.042969 163.714844 193.230469 163.714844 C 188.925781 163.714844 186.445312 168.253906 185.382812 170.820312 C 172.503906 168.171875 158.402344 170.097656 153.726562 170.878906 C 151.703125 165.609375 149.128906 163.09375 146.070312 163.40625 C 138.394531 164.179688 135.34375 182.648438 134.386719 190.550781 C 132.820312 203.480469 132.886719 212.332031 133.320312 217.890625 L 103.789062 209.378906 C 103.195312 209.210938 102.554688 209.34375 102.082031 209.746094 C 101.609375 210.148438 101.367188 210.757812 101.4375 211.375 L 106.621094 256.59375 C 106.699219 257.285156 107.160156 257.875 107.8125 258.117188 L 178.886719 284.808594 C 179.09375 284.882812 179.316406 284.925781 179.539062 284.925781 L 194.34375 284.925781 C 194.554688 284.925781 194.761719 284.890625 194.957031 284.820312 L 265.664062 259.988281 C 266.316406 259.757812 266.785156 259.183594 266.882812 258.5 L 273.546875 211.796875 C 273.632812 211.171875 273.402344 210.550781 272.929688 210.136719 Z M 138.0625 190.996094 C 140.117188 173.996094 144.296875 167.3125 146.441406 167.097656 C 147.480469 166.988281 149.21875 168.957031 150.757812 173.570312 C 151.050781 174.457031 151.957031 174.984375 152.875 174.800781 C 153.058594 174.765625 171.160156 171.214844 186.140625 174.785156 C 187.09375 175.011719 188.058594 174.457031 188.339844 173.519531 C 188.820312 171.9375 190.746094 167.421875 193.230469 167.421875 C 195.726562 167.421875 200.058594 175.171875 202.527344 186.714844 C 202.636719 187.238281 202.96875 187.683594 203.433594 187.945312 C 203.902344 188.207031 204.453125 188.25 204.957031 188.074219 C 205.0625 188.035156 215.71875 184.328125 228.203125 185.957031 C 243.59375 187.96875 254.902344 196.855469 261.855469 212.386719 L 195.199219 231.179688 L 179.425781 231.179688 L 137.144531 218.992188 C 136.640625 213.867188 136.386719 204.835938 138.0625 190.996094 Z M 181.015625 234.882812 L 193.972656 234.882812 L 193.972656 281.21875 L 181.015625 281.21875 Z M 105.433594 213.710938 L 177.316406 234.425781 L 177.316406 280.253906 L 110.171875 255.042969 Z M 263.375 256.859375 L 197.671875 279.9375 L 197.671875 234.328125 L 269.476562 214.085938 Z M 156.582031 192.628906 C 156.582031 193.855469 155.589844 194.851562 154.363281 194.851562 C 153.136719 194.851562 152.140625 193.855469 152.140625 192.628906 C 152.140625 191.402344 153.136719 190.40625 154.363281 190.40625 C 155.589844 190.40625 156.582031 191.398438 156.582031 192.628906 Z M 182.496094 192.628906 C 182.496094 191.402344 183.492188 190.40625 184.71875 190.40625 C 185.941406 190.40625 186.9375 191.402344 186.9375 192.628906 C 186.9375 193.855469 185.941406 194.851562 184.71875 194.851562 C 183.492188 194.851562 182.496094 193.855469 182.496094 192.628906 Z M 167.097656 196.296875 C 168.148438 196.050781 169.808594 195.875 171.886719 196.332031 C 172.410156 196.445312 172.53125 197.132812 172.074219 197.40625 L 169.839844 198.75 C 169.65625 198.859375 169.421875 198.859375 169.238281 198.75 L 166.933594 197.367188 C 166.488281 197.09375 166.589844 196.410156 167.097656 196.296875 Z M 181.867188 205.515625 C 177.023438 209.761719 172.152344 208.667969 169.46875 207.078125 C 167.566406 208.136719 165.863281 208.53125 164.382812 208.53125 C 160.113281 208.53125 157.699219 205.242188 157.667969 205.199219 C 157.074219 204.363281 157.269531 203.207031 158.101562 202.613281 C 158.925781 202.019531 160.074219 202.207031 160.671875 203.03125 C 161.140625 203.648438 163.679688 206.550781 168.515625 203.320312 C 169.207031 202.859375 170.117188 202.914062 170.746094 203.453125 C 171.152344 203.789062 174.90625 206.6875 179.429688 202.726562 C 180.199219 202.054688 181.367188 202.128906 182.039062 202.902344 C 182.710938 203.667969 182.636719 204.839844 181.867188 205.515625 Z M 181.867188 205.515625 " fill-opacity="1" fill-rule="nonzero"/></g><g fill="#6e4139" fill-opacity="1"><g transform="translate(97.173795, 106.300236)"><g><path d="M 13.726562 -16.164062 C 13.609375 -16.371094 13.351562 -16.691406 13.121094 -17.027344 L 14.089844 -21.503906 L 12.90625 -21.808594 C 12.128906 -19.265625 9.597656 -19.546875 6.003906 -17.515625 L 4.339844 -11.515625 L 5.539062 -11.183594 C 5.964844 -12.628906 7.152344 -12.796875 9.039062 -13.589844 L 9.753906 -12.324219 L 9.953125 -11.96875 C 9.71875 -10.941406 9.171875 -10.398438 8.074219 -10.207031 C 5.160156 -9.648438 1.785156 -11.355469 -0.234375 -13.207031 C -3.289062 -16.265625 -4.136719 -18.664062 -3.308594 -20.84375 C -1.613281 -24.992188 2.820312 -19.5625 5.96875 -21.152344 L 9.113281 -26.9375 L 7.972656 -27.574219 C 6.179688 -24.695312 2.605469 -29.984375 -1.226562 -27.816406 C -2.789062 -26.933594 -4.265625 -25.007812 -5.449219 -21.734375 C -6.832031 -17.644531 -7.804688 -12.972656 -4.214844 -8.621094 C -0.800781 -4.71875 4.597656 -2.601562 8.457031 -4.785156 C 10.492188 -5.933594 11.335938 -7.8125 11.621094 -9.917969 C 12.699219 -8.972656 13.890625 -8.519531 15 -8.484375 L 17.640625 -15.230469 L 16.398438 -15.773438 C 15.597656 -13.957031 14.855469 -14.585938 13.726562 -16.164062 Z M 13.726562 -16.164062 "/></g></g></g><g fill="#6e4139" fill-opacity="1"><g transform="translate(117.648535, 94.955588)"><g><path d="M 13.882812 -11.652344 C 12.847656 -9.984375 11.867188 -10.863281 11.230469 -12.503906 L 9.195312 -17.378906 C 7.035156 -22.382812 2.851562 -21.4375 -0.816406 -19.933594 L -4.988281 -13.25 L -3.964844 -12.535156 C -2.207031 -14.9375 1.492188 -16.710938 3.769531 -15.082031 C 0.0429688 -12.128906 -2.289062 -8.976562 -1.453125 -5.515625 C -0.855469 -3.160156 2.023438 -0.867188 4.605469 -1.886719 L 7.855469 -7.171875 C 8.644531 -5.773438 10.464844 -4.289062 11.496094 -4.710938 L 14.933594 -11.058594 Z M 5.519531 -6.617188 C 2.707031 -6.964844 1.40625 -10.675781 4.84375 -13.804688 L 6.96875 -8.710938 Z M 5.519531 -6.617188 "/></g></g></g><g fill="#6e4139" fill-opacity="1"><g transform="translate(134.130221, 88.325089)"><g><path d="M 8.34375 -21.011719 L 8.054688 -21.984375 L 3.414062 -20.597656 L 2.96875 -22.089844 C 2.0625 -25.246094 1.023438 -26.347656 -1.347656 -27.195312 L -5.765625 -20.574219 L -4.859375 -19.675781 C -3.28125 -21.492188 -2.386719 -21.089844 -1.710938 -19.066406 L -2.683594 -18.773438 L -4.949219 -15.128906 L -4.628906 -14.058594 L -0.574219 -15.269531 L 1.96875 -6.773438 C 2.839844 -3.851562 4.507812 -2.300781 6.226562 -1.863281 L 11.425781 -9.175781 L 10.367188 -9.992188 C 8.769531 -7.78125 7.199219 -7.949219 6.738281 -9.613281 L 4.550781 -16.804688 L 6.527344 -17.394531 Z M 8.34375 -21.011719 "/></g></g></g><g fill="#6e4139" fill-opacity="1"><g transform="translate(147.720474, 84.212049)"><g><path d="M 4.863281 -20.066406 L -0.179688 -13.9375 C -4.050781 -8.691406 1.867188 -0.332031 6.878906 -1.347656 L 12.371094 -7.980469 C 16.703125 -14.214844 11.574219 -21.382812 4.863281 -20.066406 Z M 9.238281 -6.539062 C 5.351562 -5.777344 1.507812 -12.886719 3.125 -15.550781 C 7.046875 -16.320312 10.039062 -9.316406 9.238281 -6.539062 Z M 9.238281 -6.539062 "/></g></g></g><g fill="#6e4139" fill-opacity="1"><g transform="translate(164.831955, 81.031744)"><g/></g></g><g fill="#6e4139" fill-opacity="1"><g transform="translate(175.227352, 79.343713)"><g><path d="M 29.476562 -5.128906 C 27.832031 -4.003906 27.542969 -4.886719 27.371094 -6.855469 L 27.527344 -18.261719 C 27.652344 -21.511719 26.964844 -22.878906 24.957031 -24.402344 C 20.625 -24.472656 16.839844 -18.78125 14.535156 -12.691406 C 11.914062 -17.949219 8.808594 -24.671875 5.730469 -24.722656 L -0.484375 -19.714844 L 0.0742188 -18.621094 C 2.09375 -19.839844 2.65625 -19.1875 2.691406 -17.089844 L 2.503906 -5.882812 C 2.453125 -2.871094 3.808594 -0.882812 5.316406 0.0898438 L 10.976562 -4.386719 L 10.214844 -5.449219 C 8.605469 -4.324219 8.28125 -5.210938 8.144531 -7.175781 C 8.003906 -8.839844 8.011719 -11.242188 8.082031 -13.644531 C 10.867188 -7.976562 12.960938 -1.542969 15.125 -1.507812 L 20.109375 -5.859375 L 19.546875 -6.75 C 18.929688 -6.21875 18.191406 -6.636719 17.398438 -7.699219 C 18.761719 -12.449219 20.472656 -19.53125 22.132812 -19.539062 L 21.964844 -5.558594 C 21.914062 -2.546875 23.035156 -0.5625 24.542969 0.410156 L 30.238281 -4.066406 Z M 29.476562 -5.128906 "/></g></g></g><g fill="#6e4139" fill-opacity="1"><g transform="translate(204.707462, 80.335673)"><g><path d="M 8.652344 -5.605469 L 16.625 -10.355469 C 16.96875 -12.5625 14.300781 -16.75 11.757812 -17.148438 C 9.117188 -17.558594 4.285156 -13.621094 3.191406 -12.316406 C 0.191406 -8.46875 3.496094 0.441406 7.257812 1.132812 L 15.195312 -3.179688 L 14.660156 -4.359375 C 11.785156 -3.058594 9.894531 -3.902344 8.652344 -5.605469 Z M 8.019531 -13.824219 C 9.457031 -14.492188 11.070312 -11.429688 11.320312 -9.300781 L 8.101562 -7.335938 C 7.019531 -9.835938 6.488281 -13.035156 8.019531 -13.824219 Z M 8.019531 -13.824219 "/></g></g></g><g fill="#6e4139" fill-opacity="1"><g transform="translate(220.311403, 82.780005)"><g><path d="M 8.050781 -13.472656 C 9.246094 -14.5625 11.078125 -10.308594 13.207031 -9.753906 L 19.851562 -12.710938 L 19.515625 -13.570312 C 17.105469 -12.902344 14.027344 -15.730469 10.683594 -16.601562 C 10.683594 -16.601562 4.125 -15.71875 3.195312 -12.148438 C 2.136719 -8.085938 13.15625 -3.503906 12.257812 -0.867188 C 10.589844 -1.304688 5.054688 -4.632812 6.613281 -5.519531 L 5.988281 -6.347656 L -0.0351562 -3.085938 C 0.4375 -1.003906 3.046875 0.792969 6.09375 1.585938 C 10.089844 2.625 14.722656 2.570312 15.882812 -1.886719 C 17.613281 -8.535156 9.109375 -9.734375 8.050781 -13.472656 Z M 8.050781 -13.472656 "/></g></g></g><g fill="#6e4139" fill-opacity="1"><g transform="translate(236.370692, 87.047592)"><g><path d="M 19.242188 -11.871094 L 19.589844 -12.824219 L 15.039062 -14.480469 L 15.574219 -15.945312 C 16.730469 -19.019531 16.558594 -20.523438 15.15625 -22.617188 L 7.664062 -19.945312 L 7.851562 -18.6875 C 10.203125 -19.199219 10.679688 -18.339844 10.015625 -16.3125 L 9.058594 -16.660156 L 5.066406 -15.089844 L 4.683594 -14.039062 L 8.660156 -12.589844 L 5.621094 -4.257812 C 4.578125 -1.394531 4.988281 0.84375 6.109375 2.226562 L 14.644531 -0.539062 L 14.285156 -1.824219 C 11.679688 -1.003906 10.519531 -2.078125 11.144531 -3.6875 L 13.683594 -10.761719 L 15.625 -10.054688 Z M 19.242188 -11.871094 "/></g></g></g><g fill="#6e4139" fill-opacity="1"><g transform="translate(249.759468, 91.923418)"><g><path d="M 15.304688 -4.902344 L 20.847656 -6.332031 C 20.847656 -6.332031 20.40625 -11.105469 18.078125 -12.203125 L 13.539062 -10.679688 C 13.839844 -12.109375 13.527344 -13.269531 12.753906 -14.71875 L 5.105469 -12.714844 L 5.164062 -11.488281 C 7.519531 -11.800781 7.933594 -10.855469 7.113281 -8.960938 L 4.859375 -4.183594 C 3.570312 -1.535156 3.773438 0.734375 4.746094 2.242188 L 11.71875 0.554688 L 11.464844 -0.726562 C 9.546875 -0.398438 9.519531 -1.609375 10.289062 -3.15625 L 12.597656 -8.128906 L 12.816406 -8.589844 L 13.085938 -8.683594 C 14.933594 -9.273438 15.128906 -6.746094 15.304688 -4.902344 Z M 15.304688 -4.902344 "/></g></g></g><g fill="#6e4139" fill-opacity="1"><g transform="translate(263.785287, 98.568947)"><g><path d="M 10.121094 -1.96875 L 19.289062 -3.398438 C 20.433594 -5.320312 19.519531 -10.199219 17.308594 -11.515625 C 15.011719 -12.886719 9.0625 -11.035156 7.558594 -10.234375 C 3.339844 -7.785156 3.078125 1.714844 6.308594 3.761719 L 15.285156 2.726562 L 15.226562 1.429688 C 12.074219 1.5625 10.636719 0.0742188 10.121094 -1.96875 Z M 12.601562 -9.832031 C 14.183594 -9.910156 14.539062 -6.46875 13.972656 -4.398438 L 10.253906 -3.78125 C 10.183594 -6.503906 10.886719 -9.667969 12.601562 -9.832031 Z M 12.601562 -9.832031 "/></g></g></g><g fill="#6e4139" fill-opacity="1"><g transform="translate(103.697918, 313.548127)"><g><path d="M 0.546875 -6.578125 L 0.546875 -8.625 C 0.546875 -10.4375 0.6875 -11.59375 0.96875 -12.09375 C 1.257812 -12.601562 1.878906 -13.289062 2.828125 -14.15625 C 3.785156 -15.03125 4.492188 -15.46875 4.953125 -15.46875 C 5.753906 -15.46875 6.664062 -15.007812 7.6875 -14.09375 C 8.71875 -13.175781 9.375 -12.164062 9.65625 -11.0625 L 7.234375 -9.390625 C 7.003906 -10.171875 6.632812 -10.890625 6.125 -11.546875 C 5.625 -12.210938 5.269531 -12.546875 5.0625 -12.546875 C 4.695312 -12.546875 4.285156 -12.1875 3.828125 -11.46875 C 3.640625 -11.195312 3.546875 -10.25 3.546875 -8.625 L 3.546875 -6.578125 C 3.546875 -4.921875 3.640625 -3.972656 3.828125 -3.734375 C 4.285156 -3.023438 4.695312 -2.671875 5.0625 -2.671875 C 5.269531 -2.671875 5.625 -2.957031 6.125 -3.53125 C 6.632812 -4.101562 7.003906 -4.738281 7.234375 -5.4375 L 9.65625 -3.734375 C 9.375 -2.734375 8.71875 -1.816406 7.6875 -0.984375 C 6.664062 -0.148438 5.753906 0.265625 4.953125 0.265625 C 4.492188 0.265625 3.785156 -0.164062 2.828125 -1.03125 C 1.878906 -1.90625 1.257812 -2.597656 0.96875 -3.109375 C 0.6875 -3.617188 0.546875 -4.773438 0.546875 -6.578125 Z M 0.546875 -6.578125 "/></g></g></g><g fill="#6e4139" fill-opacity="1"><g transform="translate(114.110618, 313.548127)"><g><path d="M 8.90625 -11.71875 L 8.90625 -2.796875 C 9 -2.296875 9.34375 -1.847656 9.9375 -1.453125 L 7.96875 0.21875 C 7.78125 0.0820312 7.550781 -0.148438 7.28125 -0.484375 C 7.007812 -0.816406 6.773438 -1.15625 6.578125 -1.5 C 5.378906 -0.320312 4.539062 0.265625 4.0625 0.265625 C 3.71875 0.265625 3.15625 -0.117188 2.375 -0.890625 C 1.601562 -1.660156 1.125 -2.285156 0.9375 -2.765625 C 0.75 -3.242188 0.65625 -4.273438 0.65625 -5.859375 C 0.65625 -7.441406 0.75 -8.472656 0.9375 -8.953125 C 1.125 -9.429688 1.601562 -10.050781 2.375 -10.8125 C 3.15625 -11.582031 3.71875 -11.96875 4.0625 -11.96875 C 4.570312 -11.96875 5.390625 -11.445312 6.515625 -10.40625 L 6.78125 -11.71875 Z M 5.890625 -8.390625 C 5.785156 -8.578125 5.578125 -8.769531 5.265625 -8.96875 C 4.953125 -9.164062 4.71875 -9.265625 4.5625 -9.265625 C 4.40625 -9.265625 4.234375 -9.164062 4.046875 -8.96875 C 3.867188 -8.78125 3.75 -8.609375 3.6875 -8.453125 C 3.5 -8.191406 3.40625 -7.328125 3.40625 -5.859375 C 3.40625 -4.390625 3.5 -3.523438 3.6875 -3.265625 C 3.75 -3.117188 3.867188 -2.945312 4.046875 -2.75 C 4.234375 -2.550781 4.40625 -2.453125 4.5625 -2.453125 C 4.71875 -2.453125 4.953125 -2.550781 5.265625 -2.75 C 5.578125 -2.945312 5.78125 -3.125 5.875 -3.28125 C 5.96875 -3.4375 6.023438 -4.285156 6.046875 -5.828125 C 6.046875 -7.359375 5.992188 -8.210938 5.890625 -8.390625 Z M 5.890625 -8.390625 "/></g></g></g><g fill="#6e4139" fill-opacity="1"><g transform="translate(124.37115, 313.548127)"><g><path d="M 0.328125 -8.578125 L 0.328125 -10.21875 L 1.40625 -10.46875 C 1.40625 -12.09375 1.484375 -13.085938 1.640625 -13.453125 C 1.804688 -13.816406 2.359375 -14.378906 3.296875 -15.140625 C 4.242188 -15.910156 4.9375 -16.296875 5.375 -16.296875 C 5.820312 -16.296875 6.378906 -16.085938 7.046875 -15.671875 C 7.710938 -15.265625 8.210938 -14.796875 8.546875 -14.265625 L 6.40625 -12.828125 C 6 -13.472656 5.65625 -13.796875 5.375 -13.796875 C 5.226562 -13.796875 5.0625 -13.703125 4.875 -13.515625 C 4.6875 -13.328125 4.539062 -13.128906 4.4375 -12.921875 C 4.332031 -12.722656 4.28125 -12.039062 4.28125 -10.875 L 7.375 -10.875 L 7.375 -8.578125 L 4.28125 -8.578125 L 4.28125 0 L 1.40625 0 L 1.40625 -8.578125 Z M 0.328125 -8.578125 "/></g></g></g><g fill="#6e4139" fill-opacity="1"><g transform="translate(131.936117, 313.548127)"><g><path d="M 8.78125 -5.890625 L 8.78125 -5.109375 L 3.515625 -5.109375 C 3.515625 -4.234375 3.625 -3.546875 3.84375 -3.046875 C 3.914062 -2.867188 4.046875 -2.6875 4.234375 -2.5 C 4.421875 -2.320312 4.613281 -2.234375 4.8125 -2.234375 C 5.019531 -2.234375 5.273438 -2.40625 5.578125 -2.75 C 5.890625 -3.101562 6.128906 -3.523438 6.296875 -4.015625 L 8.546875 -2.4375 C 8.148438 -1.707031 7.550781 -1.070312 6.75 -0.53125 C 5.945312 0 5.296875 0.265625 4.796875 0.265625 C 4.304688 0.265625 3.59375 -0.117188 2.65625 -0.890625 C 1.726562 -1.660156 1.160156 -2.257812 0.953125 -2.6875 C 0.753906 -3.113281 0.65625 -4.171875 0.65625 -5.859375 C 0.65625 -7.546875 0.753906 -8.601562 0.953125 -9.03125 C 1.160156 -9.457031 1.726562 -10.050781 2.65625 -10.8125 C 3.59375 -11.582031 4.28125 -11.96875 4.71875 -11.96875 C 5.15625 -11.96875 5.835938 -11.582031 6.765625 -10.8125 C 7.703125 -10.050781 8.269531 -9.457031 8.46875 -9.03125 C 8.675781 -8.601562 8.78125 -7.554688 8.78125 -5.890625 Z M 5.765625 -8.609375 C 5.660156 -8.804688 5.492188 -9 5.265625 -9.1875 C 5.046875 -9.375 4.835938 -9.46875 4.640625 -9.46875 C 4.441406 -9.46875 4.21875 -9.273438 3.96875 -8.890625 C 3.726562 -8.515625 3.578125 -7.941406 3.515625 -7.171875 L 6 -7.171875 C 5.957031 -7.941406 5.878906 -8.421875 5.765625 -8.609375 Z M 7.1875 -14.890625 C 7.1875 -14.679688 6.664062 -14.25 5.625 -13.59375 C 4.582031 -12.9375 4.007812 -12.609375 3.90625 -12.609375 C 3.8125 -12.609375 3.65625 -12.710938 3.4375 -12.921875 C 3.21875 -13.128906 3.109375 -13.28125 3.109375 -13.375 C 3.109375 -13.46875 3.484375 -13.976562 4.234375 -14.90625 C 4.992188 -15.832031 5.441406 -16.296875 5.578125 -16.296875 C 5.710938 -16.296875 6.015625 -16.097656 6.484375 -15.703125 C 6.953125 -15.304688 7.1875 -15.035156 7.1875 -14.890625 Z M 7.1875 -14.890625 "/></g></g></g><g fill="#6e4139" fill-opacity="1"><g transform="translate(141.587975, 313.548127)"><g/></g></g><g fill="#6e4139" fill-opacity="1"><g transform="translate(147.022576, 313.548127)"><g><path d="M 6.609375 -9.015625 L 6.609375 -6.609375 L 5.546875 -6.609375 C 5.359375 -6.546875 5.132812 -6.410156 4.875 -6.203125 C 4.613281 -6.003906 4.429688 -5.828125 4.328125 -5.671875 C 4.234375 -5.515625 4.1875 -5.210938 4.1875 -4.765625 C 4.1875 -4.328125 4.253906 -4.019531 4.390625 -3.84375 C 4.535156 -3.675781 4.796875 -3.46875 5.171875 -3.21875 C 5.546875 -2.96875 5.867188 -2.84375 6.140625 -2.84375 C 6.410156 -2.84375 6.742188 -2.96875 7.140625 -3.21875 C 7.535156 -3.46875 7.785156 -3.695312 7.890625 -3.90625 C 8.035156 -4.257812 8.109375 -4.929688 8.109375 -5.921875 C 8.109375 -6.910156 8.0625 -7.585938 7.96875 -7.953125 C 7.882812 -8.328125 7.710938 -8.773438 7.453125 -9.296875 L 9.890625 -11 C 10.328125 -10.59375 10.65625 -9.929688 10.875 -9.015625 L 13.890625 -9.015625 L 13.890625 -6.609375 L 11.109375 -6.609375 L 11.109375 -4.546875 C 11.109375 -4.210938 11.164062 -3.914062 11.28125 -3.65625 C 11.5 -3.113281 11.707031 -2.84375 11.90625 -2.84375 C 12.113281 -2.84375 12.425781 -3.066406 12.84375 -3.515625 L 15 -2.015625 C 14.457031 -1.421875 13.890625 -0.890625 13.296875 -0.421875 C 12.703125 0.0351562 12.238281 0.265625 11.90625 0.265625 C 11.375 0.265625 10.519531 -0.363281 9.34375 -1.625 C 7.90625 -0.363281 6.832031 0.265625 6.125 0.265625 C 5.5625 0.265625 4.722656 -0.175781 3.609375 -1.0625 C 2.503906 -1.957031 1.78125 -2.691406 1.4375 -3.265625 C 1.28125 -3.503906 1.203125 -4.019531 1.203125 -4.8125 C 1.203125 -5.601562 1.28125 -6.113281 1.4375 -6.34375 C 1.75 -6.820312 2.382812 -7.453125 3.34375 -8.234375 C 2.707031 -8.867188 2.296875 -9.34375 2.109375 -9.65625 C 1.929688 -9.96875 1.84375 -10.519531 1.84375 -11.3125 C 1.84375 -12.101562 1.941406 -12.640625 2.140625 -12.921875 C 2.347656 -13.203125 2.957031 -13.695312 3.96875 -14.40625 C 4.988281 -15.113281 5.691406 -15.46875 6.078125 -15.46875 C 6.460938 -15.46875 7.019531 -15.195312 7.75 -14.65625 C 8.476562 -14.113281 9.050781 -13.617188 9.46875 -13.171875 L 7.390625 -11.671875 C 7.273438 -11.847656 7.078125 -12.039062 6.796875 -12.25 C 6.515625 -12.46875 6.289062 -12.578125 6.125 -12.578125 C 5.957031 -12.578125 5.75 -12.476562 5.5 -12.28125 C 5.25 -12.09375 5.082031 -11.910156 5 -11.734375 C 4.914062 -11.554688 4.875 -11.304688 4.875 -10.984375 C 4.875 -10.671875 4.921875 -10.40625 5.015625 -10.1875 C 5.109375 -9.976562 5.300781 -9.726562 5.59375 -9.4375 C 5.894531 -9.15625 6.144531 -9.015625 6.34375 -9.015625 Z M 6.609375 -9.015625 "/></g></g></g><g fill="#6e4139" fill-opacity="1"><g transform="translate(163.217692, 313.548127)"><g/></g></g><g fill="#6e4139" fill-opacity="1"><g transform="translate(168.652293, 313.548127)"><g><path d="M 3.90625 -14.28125 C 4.894531 -15.070312 5.585938 -15.46875 5.984375 -15.46875 C 6.378906 -15.46875 7.015625 -15.085938 7.890625 -14.328125 C 8.773438 -13.566406 9.328125 -13.03125 9.546875 -12.71875 C 9.765625 -12.414062 9.875 -11.90625 9.875 -11.1875 C 9.875 -10.476562 9.765625 -9.945312 9.546875 -9.59375 C 9.328125 -9.238281 8.925781 -8.785156 8.34375 -8.234375 C 9.257812 -7.484375 9.90625 -6.851562 10.28125 -6.34375 C 10.4375 -6.082031 10.515625 -5.59375 10.515625 -4.875 C 10.515625 -4.15625 10.4375 -3.691406 10.28125 -3.484375 C 10.019531 -2.910156 9.390625 -2.1875 8.390625 -1.3125 C 7.390625 -0.4375 6.597656 0 6.015625 0 L 1.515625 0 L 1.515625 -9.296875 C 1.515625 -10.472656 1.429688 -11.300781 1.265625 -11.78125 C 1.097656 -12.257812 0.75 -12.820312 0.21875 -13.46875 L 3.09375 -15.46875 C 3.4375 -15.1875 3.707031 -14.789062 3.90625 -14.28125 Z M 4.515625 -6.609375 L 4.515625 -2.625 L 6.015625 -2.625 C 6.203125 -2.625 6.429688 -2.769531 6.703125 -3.0625 C 6.984375 -3.363281 7.1875 -3.625 7.3125 -3.84375 C 7.4375 -4.070312 7.5 -4.535156 7.5 -5.234375 C 7.5 -5.710938 7.132812 -6.171875 6.40625 -6.609375 Z M 4.515625 -10.5625 L 4.515625 -9.015625 L 5.625 -9.015625 C 5.789062 -9.015625 5.988281 -9.15625 6.21875 -9.4375 C 6.457031 -9.726562 6.617188 -9.976562 6.703125 -10.1875 C 6.796875 -10.40625 6.84375 -10.664062 6.84375 -10.96875 C 6.84375 -11.28125 6.695312 -11.625 6.40625 -12 C 6.125 -12.382812 5.859375 -12.578125 5.609375 -12.578125 C 5.359375 -12.578125 4.972656 -12.484375 4.453125 -12.296875 C 4.492188 -11.734375 4.515625 -11.15625 4.515625 -10.5625 Z M 4.515625 -10.5625 "/></g></g></g><g fill="#6e4139" fill-opacity="1"><g transform="translate(180.260602, 313.548127)"><g><path d="M 4.171875 -2.5625 C 4.398438 -2.34375 4.578125 -2.234375 4.703125 -2.234375 C 4.835938 -2.234375 5.015625 -2.34375 5.234375 -2.5625 C 5.460938 -2.78125 5.628906 -2.976562 5.734375 -3.15625 C 5.921875 -3.46875 6.015625 -4.363281 6.015625 -5.84375 C 6.015625 -7.320312 5.921875 -8.226562 5.734375 -8.5625 C 5.628906 -8.738281 5.460938 -8.929688 5.234375 -9.140625 C 5.015625 -9.359375 4.835938 -9.46875 4.703125 -9.46875 C 4.578125 -9.46875 4.398438 -9.359375 4.171875 -9.140625 C 3.953125 -8.929688 3.789062 -8.738281 3.6875 -8.5625 C 3.5 -8.238281 3.40625 -7.335938 3.40625 -5.859375 C 3.40625 -4.390625 3.5 -3.488281 3.6875 -3.15625 C 3.789062 -2.976562 3.953125 -2.78125 4.171875 -2.5625 Z M 6.671875 -0.796875 C 5.785156 -0.0859375 5.132812 0.265625 4.71875 0.265625 C 4.300781 0.265625 3.644531 -0.0859375 2.75 -0.796875 C 1.851562 -1.515625 1.304688 -2.046875 1.109375 -2.390625 C 0.804688 -2.921875 0.65625 -4.078125 0.65625 -5.859375 C 0.65625 -7.648438 0.804688 -8.804688 1.109375 -9.328125 C 1.304688 -9.671875 1.851562 -10.195312 2.75 -10.90625 C 3.644531 -11.613281 4.300781 -11.96875 4.71875 -11.96875 C 5.132812 -11.96875 5.785156 -11.613281 6.671875 -10.90625 C 7.566406 -10.195312 8.117188 -9.671875 8.328125 -9.328125 C 8.628906 -8.804688 8.78125 -7.648438 8.78125 -5.859375 C 8.78125 -4.078125 8.628906 -2.921875 8.328125 -2.390625 C 8.117188 -2.046875 7.566406 -1.515625 6.671875 -0.796875 Z M 6.671875 -0.796875 "/></g></g></g><g fill="#6e4139" fill-opacity="1"><g transform="translate(189.69507, 313.548127)"><g><path d="M 8.90625 -11.71875 L 8.90625 -2.796875 C 9 -2.296875 9.34375 -1.847656 9.9375 -1.453125 L 7.96875 0.21875 C 7.78125 0.0820312 7.550781 -0.148438 7.28125 -0.484375 C 7.007812 -0.816406 6.773438 -1.15625 6.578125 -1.5 C 5.378906 -0.320312 4.539062 0.265625 4.0625 0.265625 C 3.71875 0.265625 3.15625 -0.117188 2.375 -0.890625 C 1.601562 -1.660156 1.125 -2.285156 0.9375 -2.765625 C 0.75 -3.242188 0.65625 -4.273438 0.65625 -5.859375 C 0.65625 -7.441406 0.75 -8.472656 0.9375 -8.953125 C 1.125 -9.429688 1.601562 -10.050781 2.375 -10.8125 C 3.15625 -11.582031 3.71875 -11.96875 4.0625 -11.96875 C 4.570312 -11.96875 5.390625 -11.445312 6.515625 -10.40625 L 6.78125 -11.71875 Z M 5.890625 -8.390625 C 5.785156 -8.578125 5.578125 -8.769531 5.265625 -8.96875 C 4.953125 -9.164062 4.71875 -9.265625 4.5625 -9.265625 C 4.40625 -9.265625 4.234375 -9.164062 4.046875 -8.96875 C 3.867188 -8.78125 3.75 -8.609375 3.6875 -8.453125 C 3.5 -8.191406 3.40625 -7.328125 3.40625 -5.859375 C 3.40625 -4.390625 3.5 -3.523438 3.6875 -3.265625 C 3.75 -3.117188 3.867188 -2.945312 4.046875 -2.75 C 4.234375 -2.550781 4.40625 -2.453125 4.5625 -2.453125 C 4.71875 -2.453125 4.953125 -2.550781 5.265625 -2.75 C 5.578125 -2.945312 5.78125 -3.125 5.875 -3.28125 C 5.96875 -3.4375 6.023438 -4.285156 6.046875 -5.828125 C 6.046875 -7.359375 5.992188 -8.210938 5.890625 -8.390625 Z M 5.890625 -8.390625 "/></g></g></g><g fill="#6e4139" fill-opacity="1"><g transform="translate(199.955603, 313.548127)"><g><path d="M 4.28125 0 L 1.40625 0 L 1.40625 -7.5 C 1.40625 -8.238281 1.316406 -8.8125 1.140625 -9.21875 C 0.960938 -9.632812 0.691406 -9.992188 0.328125 -10.296875 L 2.71875 -11.96875 C 3.238281 -11.539062 3.632812 -11.035156 3.90625 -10.453125 C 4.976562 -11.460938 5.734375 -11.96875 6.171875 -11.96875 C 6.460938 -11.96875 6.90625 -11.703125 7.5 -11.171875 C 8.09375 -10.640625 8.441406 -10.050781 8.546875 -9.40625 L 6.21875 -7.734375 C 6.195312 -8.085938 6.109375 -8.429688 5.953125 -8.765625 C 5.804688 -9.097656 5.675781 -9.265625 5.5625 -9.265625 C 5.3125 -9.265625 4.882812 -8.957031 4.28125 -8.34375 Z M 4.28125 0 "/></g></g></g><g fill="#6e4139" fill-opacity="1"><g transform="translate(208.281412, 313.548127)"><g><path d="M 0.890625 -9.109375 C 1.003906 -9.472656 1.457031 -10.039062 2.25 -10.8125 C 3.039062 -11.582031 3.625 -11.96875 4 -11.96875 C 4.375 -11.96875 5.019531 -11.578125 5.9375 -10.796875 L 5.9375 -11.859375 C 5.9375 -12.597656 5.847656 -13.164062 5.671875 -13.5625 C 5.492188 -13.957031 5.21875 -14.3125 4.84375 -14.625 L 7.234375 -16.296875 C 8.273438 -15.472656 8.796875 -14.304688 8.796875 -12.796875 L 8.796875 0 L 6.578125 0 L 6.328125 -1.28125 C 5.265625 -0.25 4.472656 0.265625 3.953125 0.265625 C 3.609375 0.265625 3.039062 -0.117188 2.25 -0.890625 C 1.457031 -1.671875 1.003906 -2.242188 0.890625 -2.609375 C 0.734375 -2.972656 0.65625 -4.054688 0.65625 -5.859375 C 0.65625 -7.660156 0.734375 -8.742188 0.890625 -9.109375 Z M 5.78125 -8.390625 C 5.675781 -8.578125 5.46875 -8.769531 5.15625 -8.96875 C 4.84375 -9.164062 4.609375 -9.265625 4.453125 -9.265625 C 4.296875 -9.265625 4.125 -9.164062 3.9375 -8.96875 C 3.757812 -8.78125 3.625 -8.582031 3.53125 -8.375 C 3.445312 -8.175781 3.40625 -7.332031 3.40625 -5.84375 C 3.40625 -4.363281 3.445312 -3.523438 3.53125 -3.328125 C 3.625 -3.140625 3.757812 -2.945312 3.9375 -2.75 C 4.125 -2.550781 4.289062 -2.453125 4.4375 -2.453125 C 4.59375 -2.453125 4.828125 -2.550781 5.140625 -2.75 C 5.453125 -2.945312 5.660156 -3.117188 5.765625 -3.265625 C 5.847656 -3.460938 5.90625 -4.046875 5.9375 -5.015625 L 5.9375 -5.828125 C 5.9375 -7.359375 5.882812 -8.210938 5.78125 -8.390625 Z M 5.78125 -8.390625 "/></g></g></g><g fill="#6e4139" fill-opacity="1"><g transform="translate(217.737621, 313.548127)"><g><path d="M 5.765625 -8.421875 C 5.660156 -8.597656 5.453125 -8.78125 5.140625 -8.96875 C 4.835938 -9.164062 4.609375 -9.265625 4.453125 -9.265625 C 4.296875 -9.265625 4.125 -9.164062 3.9375 -8.96875 C 3.757812 -8.78125 3.644531 -8.609375 3.59375 -8.453125 C 3.46875 -8.222656 3.40625 -7.5 3.40625 -6.28125 C 3.40625 -5.0625 3.46875 -4.34375 3.59375 -4.125 C 3.644531 -3.976562 3.757812 -3.804688 3.9375 -3.609375 C 4.125 -3.421875 4.296875 -3.328125 4.453125 -3.328125 C 4.609375 -3.328125 4.84375 -3.421875 5.15625 -3.609375 C 5.46875 -3.804688 5.675781 -3.988281 5.78125 -4.15625 C 5.882812 -4.320312 5.9375 -5.03125 5.9375 -6.28125 C 5.9375 -7.539062 5.878906 -8.253906 5.765625 -8.421875 Z M 8.765625 -11.71875 L 8.765625 -0.71875 C 8.765625 1.132812 8.679688 2.238281 8.515625 2.59375 C 8.347656 2.945312 7.765625 3.507812 6.765625 4.28125 C 5.765625 5.050781 5.015625 5.4375 4.515625 5.4375 C 4.015625 5.4375 3.382812 5.1875 2.625 4.6875 C 1.875 4.1875 1.3125 3.609375 0.9375 2.953125 L 3.171875 1.40625 L 3.390625 1.6875 C 3.921875 2.375 4.289062 2.71875 4.5 2.71875 C 4.71875 2.71875 4.957031 2.625 5.21875 2.4375 C 5.488281 2.25 5.671875 2.046875 5.765625 1.828125 C 5.859375 1.617188 5.90625 0.734375 5.90625 -0.828125 L 5.984375 -1.671875 C 4.992188 -0.960938 4.320312 -0.609375 3.96875 -0.609375 C 3.613281 -0.609375 3.050781 -0.988281 2.28125 -1.75 C 1.507812 -2.519531 1.046875 -3.09375 0.890625 -3.46875 C 0.734375 -3.851562 0.65625 -4.789062 0.65625 -6.28125 C 0.65625 -7.769531 0.734375 -8.707031 0.890625 -9.09375 C 1.046875 -9.476562 1.507812 -10.050781 2.28125 -10.8125 C 3.050781 -11.582031 3.640625 -11.96875 4.046875 -11.96875 C 4.453125 -11.96875 5.226562 -11.503906 6.375 -10.578125 L 6.625 -11.71875 Z M 8.765625 -11.71875 "/></g></g></g><g fill="#6e4139" fill-opacity="1"><g transform="translate(227.259051, 313.548127)"><g><path d="M 8.90625 -11.71875 L 8.90625 -2.796875 C 9 -2.296875 9.34375 -1.847656 9.9375 -1.453125 L 7.96875 0.21875 C 7.78125 0.0820312 7.550781 -0.148438 7.28125 -0.484375 C 7.007812 -0.816406 6.773438 -1.15625 6.578125 -1.5 C 5.378906 -0.320312 4.539062 0.265625 4.0625 0.265625 C 3.71875 0.265625 3.15625 -0.117188 2.375 -0.890625 C 1.601562 -1.660156 1.125 -2.285156 0.9375 -2.765625 C 0.75 -3.242188 0.65625 -4.273438 0.65625 -5.859375 C 0.65625 -7.441406 0.75 -8.472656 0.9375 -8.953125 C 1.125 -9.429688 1.601562 -10.050781 2.375 -10.8125 C 3.15625 -11.582031 3.71875 -11.96875 4.0625 -11.96875 C 4.570312 -11.96875 5.390625 -11.445312 6.515625 -10.40625 L 6.78125 -11.71875 Z M 5.890625 -8.390625 C 5.785156 -8.578125 5.578125 -8.769531 5.265625 -8.96875 C 4.953125 -9.164062 4.71875 -9.265625 4.5625 -9.265625 C 4.40625 -9.265625 4.234375 -9.164062 4.046875 -8.96875 C 3.867188 -8.78125 3.75 -8.609375 3.6875 -8.453125 C 3.5 -8.191406 3.40625 -7.328125 3.40625 -5.859375 C 3.40625 -4.390625 3.5 -3.523438 3.6875 -3.265625 C 3.75 -3.117188 3.867188 -2.945312 4.046875 -2.75 C 4.234375 -2.550781 4.40625 -2.453125 4.5625 -2.453125 C 4.71875 -2.453125 4.953125 -2.550781 5.265625 -2.75 C 5.578125 -2.945312 5.78125 -3.125 5.875 -3.28125 C 5.96875 -3.4375 6.023438 -4.285156 6.046875 -5.828125 C 6.046875 -7.359375 5.992188 -8.210938 5.890625 -8.390625 Z M 5.890625 -8.390625 "/></g></g></g><g fill="#6e4139" fill-opacity="1"><g transform="translate(237.519584, 313.548127)"><g><path d="M 9.078125 0 L 6.21875 0 L 6.21875 -8.078125 C 6.21875 -8.328125 6.085938 -8.585938 5.828125 -8.859375 C 5.566406 -9.128906 5.34375 -9.265625 5.15625 -9.265625 C 4.976562 -9.265625 4.6875 -9.085938 4.28125 -8.734375 L 4.28125 0 L 1.40625 0 L 1.40625 -7.5 C 1.40625 -8.238281 1.316406 -8.8125 1.140625 -9.21875 C 0.972656 -9.625 0.703125 -9.976562 0.328125 -10.28125 L 2.71875 -11.953125 C 3.195312 -11.546875 3.550781 -11.132812 3.78125 -10.71875 C 4.71875 -11.550781 5.367188 -11.96875 5.734375 -11.96875 C 5.953125 -11.96875 6.304688 -11.804688 6.796875 -11.484375 C 7.296875 -11.171875 7.75 -10.789062 8.15625 -10.34375 C 9.300781 -11.425781 10.09375 -11.96875 10.53125 -11.96875 C 10.96875 -11.96875 11.628906 -11.566406 12.515625 -10.765625 C 13.410156 -9.960938 13.859375 -9.171875 13.859375 -8.390625 L 13.859375 -4.1875 C 13.859375 -3.457031 13.945312 -2.890625 14.125 -2.484375 C 14.300781 -2.078125 14.578125 -1.71875 14.953125 -1.40625 L 12.5625 0.265625 C 11.519531 -0.566406 11 -1.742188 11 -3.265625 L 11 -8.078125 C 11 -8.328125 10.867188 -8.585938 10.609375 -8.859375 C 10.347656 -9.128906 10.132812 -9.265625 9.96875 -9.265625 C 9.800781 -9.265625 9.492188 -9.082031 9.046875 -8.71875 C 9.066406 -8.570312 9.078125 -8.460938 9.078125 -8.390625 Z M 9.078125 0 "/></g></g></g><g fill="#6e4139" fill-opacity="1"><g transform="translate(252.801679, 313.548127)"><g><path d="M 8.78125 -5.890625 L 8.78125 -5.109375 L 3.515625 -5.109375 C 3.515625 -4.234375 3.625 -3.546875 3.84375 -3.046875 C 3.914062 -2.867188 4.046875 -2.6875 4.234375 -2.5 C 4.421875 -2.320312 4.613281 -2.234375 4.8125 -2.234375 C 5.019531 -2.234375 5.273438 -2.40625 5.578125 -2.75 C 5.890625 -3.101562 6.128906 -3.523438 6.296875 -4.015625 L 8.546875 -2.4375 C 8.148438 -1.707031 7.550781 -1.070312 6.75 -0.53125 C 5.945312 0 5.296875 0.265625 4.796875 0.265625 C 4.304688 0.265625 3.59375 -0.117188 2.65625 -0.890625 C 1.726562 -1.660156 1.160156 -2.257812 0.953125 -2.6875 C 0.753906 -3.113281 0.65625 -4.171875 0.65625 -5.859375 C 0.65625 -7.546875 0.753906 -8.601562 0.953125 -9.03125 C 1.160156 -9.457031 1.726562 -10.050781 2.65625 -10.8125 C 3.59375 -11.582031 4.28125 -11.96875 4.71875 -11.96875 C 5.15625 -11.96875 5.835938 -11.582031 6.765625 -10.8125 C 7.703125 -10.050781 8.269531 -9.457031 8.46875 -9.03125 C 8.675781 -8.601562 8.78125 -7.554688 8.78125 -5.890625 Z M 5.765625 -8.609375 C 5.660156 -8.804688 5.492188 -9 5.265625 -9.1875 C 5.046875 -9.375 4.835938 -9.46875 4.640625 -9.46875 C 4.441406 -9.46875 4.21875 -9.273438 3.96875 -8.890625 C 3.726562 -8.515625 3.578125 -7.941406 3.515625 -7.171875 L 6 -7.171875 C 5.957031 -7.941406 5.878906 -8.421875 5.765625 -8.609375 Z M 5.765625 -8.609375 "/></g></g></g><g fill="#6e4139" fill-opacity="1"><g transform="translate(262.453542, 313.548127)"><g><path d="M 8.40625 -3.515625 C 8.40625 -3.066406 7.847656 -2.320312 6.734375 -1.28125 C 5.617188 -0.25 4.789062 0.265625 4.25 0.265625 C 3.707031 0.265625 3.03125 0 2.21875 -0.53125 C 1.414062 -1.070312 0.820312 -1.707031 0.4375 -2.4375 L 2.671875 -3.984375 C 3.398438 -2.960938 3.929688 -2.453125 4.265625 -2.453125 C 4.503906 -2.453125 4.804688 -2.570312 5.171875 -2.8125 C 5.535156 -3.0625 5.71875 -3.296875 5.71875 -3.515625 C 5.71875 -3.578125 5.539062 -3.703125 5.1875 -3.890625 C 4.84375 -4.085938 4.421875 -4.332031 3.921875 -4.625 C 3.421875 -4.925781 2.921875 -5.257812 2.421875 -5.625 C 1.929688 -6 1.515625 -6.453125 1.171875 -6.984375 C 0.828125 -7.523438 0.65625 -8.070312 0.65625 -8.625 C 0.65625 -9.175781 1.144531 -9.867188 2.125 -10.703125 C 3.113281 -11.546875 3.867188 -11.96875 4.390625 -11.96875 C 4.921875 -11.96875 5.585938 -11.703125 6.390625 -11.171875 C 7.203125 -10.640625 7.800781 -10.007812 8.1875 -9.28125 L 5.953125 -7.734375 C 5.234375 -8.753906 4.707031 -9.265625 4.375 -9.265625 C 4.195312 -9.265625 3.976562 -9.164062 3.71875 -8.96875 C 3.46875 -8.769531 3.34375 -8.585938 3.34375 -8.421875 C 3.34375 -8.265625 3.609375 -8.019531 4.140625 -7.6875 C 4.671875 -7.351562 5.25 -7.007812 5.875 -6.65625 C 6.507812 -6.300781 7.085938 -5.835938 7.609375 -5.265625 C 8.140625 -4.691406 8.40625 -4.109375 8.40625 -3.515625 Z M 8.40625 -3.515625 "/></g></g></g></svg>